<svg xmlns="http://www.w3.org/2000/svg" width="121.279" height="30" viewBox="0 0 121.279 30"><path fill="#FFF" d="M29.778 30h21.979v-6.747H37.51V18.17h13.935v-6.746H37.51V6.747h14.248V0h-21.98v30zm26.407 0h21.979v-6.747H63.916V18.17H77.85v-6.746H63.916V6.747h14.249V0h-21.98v30zM25.441 9.985C25.441 4.407 21.666 0 15.013 0H0v6.747h13.846c2.021 0 3.729 1.169 3.729 3.193 0 2.114-1.708 3.238-3.729 3.238H0V30h7.731V19.926h3.956L16.721 30h8.854l-6.113-11.021c2.788-.988 5.979-3.777 5.979-8.994zm77.242 6.522L90.547 0h-7.956v30h7.731V12.639L102.998 30h7.462V0h-7.775l-.002 16.507zm11.874 6.77V30h6.722v-6.723h-6.722z"/></svg>